<svg width="140" height="37" viewBox="0 0 140 37" fill="none" xmlns="http://www.w3.org/2000/svg">
<g clip-path="url(#clip0_5_3)">
<path d="M66.0987 16.695C65.5404 17.0722 64.7207 17.2608 63.6352 17.2608H60.5336V12.2164H63.808C65.8904 12.2164 66.9361 13.063 66.9361 14.7518C66.9361 15.6685 66.657 16.3177 66.0987 16.695ZM60.538 5.62786H63.3206C64.1093 5.62786 64.703 5.78578 65.1062 6.09722C65.5094 6.41304 65.7088 6.9789 65.7088 7.79917C65.7088 8.52294 65.5005 9.03616 65.0796 9.33006C64.6587 9.62834 64.1713 9.77748 63.613 9.77748H60.5336V5.62786H60.538ZM69.4617 12.383C68.9787 11.7558 68.2166 11.247 67.1842 10.8609C68.1501 10.0582 68.6375 8.88263 68.6375 7.33421C68.6375 6.39988 68.4824 5.65418 68.1723 5.08832C67.8621 4.52685 67.4191 4.08821 66.8431 3.77238C66.267 3.46094 65.5758 3.25039 64.7606 3.14511C63.9497 3.03984 63.0414 2.9872 62.0401 2.9872H57.3877V19.8839H64.0339C64.8049 19.8839 65.5581 19.8006 66.2981 19.6295C67.038 19.4585 67.6938 19.1821 68.2653 18.7961C68.8413 18.4101 69.3021 17.9012 69.6566 17.2652C70.0111 16.6292 70.1883 15.844 70.1883 14.9141C70.1883 13.8525 69.9446 13.0059 69.4617 12.3787M88.0577 19.8927H84.7834L83.3079 15.8133H77.57L76.0946 19.8927H72.8202L78.948 2.99597H81.9255L88.0533 19.8927H88.0577ZM82.2224 12.8173L80.4279 7.86936L78.6556 12.8173H82.2268H82.2224ZM91.2568 12.6506V2.99597H94.4071V11.6286C94.4071 12.5322 94.4735 13.3349 94.6065 14.0368C94.7349 14.7386 94.9521 15.3308 95.2578 15.8133C95.5591 16.2958 95.9667 16.6643 96.4762 16.9143C96.9858 17.1643 97.6238 17.2871 98.3948 17.2871C99.1657 17.2871 99.7861 17.1599 100.3 16.9143C100.818 16.6643 101.226 16.2958 101.532 15.8133C101.833 15.3308 102.055 14.7386 102.183 14.0368C102.312 13.3349 102.378 12.5322 102.378 11.6286V2.99597H105.528V12.6506C105.528 15.0149 104.93 16.8704 103.734 18.2127C102.538 19.555 100.756 20.2261 98.3904 20.2261C96.0243 20.2261 94.2476 19.555 93.0468 18.2127C91.8505 16.8704 91.2523 15.0149 91.2523 12.6506M122.25 19.8927H110.974V2.99597H122.002V5.98755H114.199V9.58447H120.256V12.5804H114.199V16.9011H122.25V19.8927ZM140 19.8927H136.726L133.159 13.6157H129.96V19.8927H126.81V2.99597H133.11C137.062 2.99597 139.043 4.61897 139.043 7.87374C139.043 9.08003 138.786 10.0626 138.281 10.8171C137.771 11.5759 137.049 12.2339 136.114 12.7954L140.004 19.8927H140ZM132.392 5.57961H129.955V10.7206H132.268C133.597 10.7206 134.51 10.5012 135.002 10.0582C135.494 9.61518 135.742 8.96159 135.742 8.08868C135.742 7.21577 135.503 6.60166 135.029 6.19372C134.55 5.78578 133.673 5.57961 132.397 5.57961" fill="white"/>
<path d="M62.4964 27.9989C62.4964 27.2401 61.978 26.7269 61.114 26.7269H59.5499C59.4923 26.7269 59.4658 26.7532 59.4658 26.8102V29.1745C59.4658 29.2315 59.4923 29.2579 59.5499 29.2579H61.114C61.978 29.2579 62.4964 28.7622 62.4964 27.9989ZM57.5561 34.3681C57.4719 34.3681 57.4187 34.3111 57.4187 34.2277V25.1082C57.4187 25.0249 57.4763 24.9679 57.5561 24.9679H61.2425C63.3073 24.9679 64.5523 26.1961 64.5523 27.9945C64.5523 29.793 63.294 31.0081 61.2425 31.0081H59.5544C59.4968 31.0081 59.4702 31.0344 59.4702 31.0914V34.2277C59.4702 34.3111 59.4126 34.3681 59.3284 34.3681H57.5561Z" fill="#E2112F"/>
<path d="M66.6658 34.3681C66.5816 34.3681 66.5285 34.3111 66.5285 34.2277V27.8147C66.5285 27.7314 66.5861 27.6743 66.6658 27.6743H68.3407C68.4249 27.6743 68.478 27.7314 68.478 27.8147V28.3806H68.4913C68.8148 27.841 69.4262 27.5208 70.2503 27.5208C70.6979 27.5208 71.1454 27.6743 71.4378 27.9244C71.5087 27.977 71.522 28.034 71.4821 28.1174L70.6979 29.5254C70.6447 29.5956 70.5871 29.5956 70.5029 29.5517C70.1795 29.3456 69.8604 29.2315 69.5237 29.2491C68.797 29.2754 68.478 29.8018 68.478 30.701V34.2234C68.478 34.3067 68.4249 34.3637 68.3407 34.3637H66.6658V34.3681Z" fill="#E2112F"/>
<path d="M76.7902 32.1705C76.8877 31.8678 76.9143 31.5915 76.9143 31.0256C76.9143 30.4598 76.8877 30.1834 76.7902 29.8763C76.6351 29.407 76.2585 29.157 75.7445 29.157C75.2306 29.157 74.8495 29.407 74.6989 29.8763C74.6014 30.179 74.5748 30.4554 74.5748 31.0256C74.5748 31.5959 74.6014 31.8678 74.6989 32.1705C74.8539 32.6398 75.2306 32.8899 75.7445 32.8899C76.2585 32.8899 76.6396 32.6398 76.7902 32.1705ZM72.8113 32.6398C72.6563 32.1573 72.5854 31.688 72.5854 31.0212C72.5854 30.3545 72.6563 29.8895 72.8113 29.4026C73.2013 28.1875 74.3178 27.5208 75.7445 27.5208C77.1712 27.5208 78.2834 28.1832 78.6733 29.4026C78.8284 29.8851 78.8993 30.3545 78.8993 31.0212C78.8993 31.688 78.8284 32.1529 78.6733 32.6398C78.2834 33.8549 77.1668 34.5216 75.7445 34.5216C74.3222 34.5216 73.2057 33.8593 72.8113 32.6398Z" fill="#E2112F"/>
<path d="M83.1395 34.3681C83.0553 34.3681 82.9977 34.3111 82.9977 34.2277V26.8628C82.9977 26.8058 82.9712 26.7795 82.9136 26.7795H80.5121C80.4279 26.7795 80.3703 26.7225 80.3703 26.6391V25.1039C80.3703 25.0249 80.4279 24.9635 80.5121 24.9635H87.5349C87.6191 24.9635 87.6767 25.0205 87.6767 25.1039V26.6391C87.6767 26.7225 87.6191 26.7795 87.5349 26.7795H85.1334C85.0758 26.7795 85.0492 26.8058 85.0492 26.8628V34.2277C85.0492 34.3111 84.996 34.3681 84.9118 34.3681H83.1395Z" fill="#E2112F"/>
<path d="M92.3512 32.1705C92.4486 31.8678 92.4752 31.5915 92.4752 31.0256C92.4752 30.4598 92.4486 30.1834 92.3512 29.8763C92.1961 29.407 91.8239 29.157 91.3055 29.157C90.7871 29.157 90.4105 29.407 90.2598 29.8763C90.1623 30.179 90.1358 30.4554 90.1358 31.0256C90.1358 31.5959 90.1623 31.8678 90.2598 32.1705C90.4149 32.6398 90.7915 32.8899 91.3055 32.8899C91.8195 32.8899 92.2005 32.6398 92.3512 32.1705ZM88.3723 32.6398C88.2172 32.1573 88.1508 31.688 88.1508 31.0212C88.1508 30.3545 88.2216 29.8895 88.3723 29.4026C88.7622 28.1875 89.8788 27.5208 91.3055 27.5208C92.7322 27.5208 93.8443 28.1832 94.2342 29.4026C94.3893 29.8851 94.4602 30.3545 94.4602 31.0212C94.4602 31.688 94.3893 32.1529 94.2342 32.6398C93.8443 33.8549 92.7278 34.5216 91.3055 34.5216C89.8832 34.5216 88.7622 33.8593 88.3723 32.6398Z" fill="#E2112F"/>
<path d="M100.446 32.1705C100.544 31.8678 100.575 31.5915 100.575 31.0256C100.575 30.4598 100.548 30.1834 100.446 29.8763C100.296 29.407 99.919 29.157 99.4006 29.157C98.8822 29.157 98.5056 29.407 98.3549 29.8763C98.2574 30.179 98.2308 30.4554 98.2308 31.0256C98.2308 31.5959 98.2574 31.8678 98.3549 32.1705C98.51 32.6398 98.8866 32.8899 99.4006 32.8899C99.9145 32.8899 100.296 32.6398 100.446 32.1705ZM96.4674 32.6398C96.3123 32.1573 96.2458 31.688 96.2458 31.0212C96.2458 30.3545 96.3167 29.8895 96.4674 29.4026C96.8573 28.1875 97.9739 27.5208 99.4006 27.5208C100.827 27.5208 101.939 28.1832 102.329 29.4026C102.484 29.8851 102.555 30.3545 102.555 31.0212C102.555 31.688 102.484 32.1529 102.329 32.6398C101.939 33.8549 100.823 34.5216 99.4006 34.5216C97.9783 34.5216 96.8573 33.8593 96.4674 32.6398Z" fill="#E2112F"/>
<path d="M106.742 34.4515C105.249 34.4515 104.647 33.8023 104.647 32.324V25.1082C104.647 25.0249 104.704 24.9679 104.788 24.9679H106.463C106.547 24.9679 106.605 25.0249 106.605 25.1082V32.1705C106.605 32.6267 106.787 32.8065 107.19 32.8065H107.482C107.567 32.8065 107.62 32.8592 107.62 32.9425V34.3111C107.62 34.3944 107.567 34.4515 107.482 34.4515H106.742Z" fill="#E2112F"/>
<path d="M109.197 33.4864C109.139 33.4294 109.139 33.3461 109.197 33.2934L110.105 32.2845C110.163 32.2275 110.229 32.2275 110.3 32.2845C110.898 32.7407 111.669 33.0171 112.365 33.0171C113.061 33.0171 113.411 32.7539 113.411 32.381C113.411 32.0652 113.229 31.8722 112.449 31.802L111.696 31.7187C110.274 31.5783 109.49 30.8765 109.49 29.6746C109.49 28.363 110.509 27.5296 112.268 27.5296C113.415 27.5296 114.377 27.8893 115.006 28.3586C115.063 28.4113 115.077 28.4946 115.019 28.5648L114.239 29.5167C114.182 29.5868 114.115 29.5868 114.044 29.543C113.584 29.2535 112.915 29.0034 112.214 29.0034C111.643 29.0034 111.364 29.2271 111.364 29.5561C111.364 29.8588 111.532 30.0386 112.299 30.1088L113.039 30.1922C114.629 30.3457 115.285 31.1046 115.285 32.2231C115.272 33.5917 114.195 34.5173 112.268 34.5173C110.859 34.5173 109.84 34.0347 109.197 33.482" fill="#E2112F"/>
<path d="M41.9287 3.88252L41.7736 2.9131L40.821 2.61921C40.2494 2.44375 27.2671 -1.48215 14.409 0.618973V3.82988C24.7505 2.00072 35.6502 4.51417 38.8936 5.36954C40.3602 15.726 39.2259 28.1661 38.8448 31.706C25.2821 36.0179 7.95772 32.5263 3.78833 31.5744C3.60224 29.8988 3.40285 25.9071 3.28322 22.104C5.42773 20.9065 7.04497 20.1651 8.16154 19.709L8.25901 26.7536L9.05656 27.2011C17.3953 31.8902 32.6461 28.4249 33.293 28.2758L34.5337 27.9862V9.97534L33.3595 9.65074C23.2617 6.84778 14.6261 8.12425 10.7757 8.99716V0.737408L8.95465 0.965506C6.11007 1.3252 2.02045 2.56219 1.84764 2.61482L0.908314 2.89995L0.735513 3.85181C0.115201 7.28643 0.0265848 13.4143 0.022154 16.2305L3.26107 14.5943C3.29652 11.9098 3.40729 8.03213 3.76618 5.36076C4.68779 5.10196 6.14552 4.71156 7.55008 4.42206V13.2564L9.67687 12.559C9.77435 12.5283 19.4202 9.44897 31.308 12.3879V25.4552C27.7811 26.122 17.577 27.6836 11.4581 24.8675L11.3296 15.5725L9.42431 15.9497C9.23379 15.9892 7.95772 16.2699 5.42773 17.4368V17.4455L2.08248 19.1387C1.67927 19.3624 1.26278 19.5905 0.824129 19.8449L0 20.3187L0.0265848 21.253C0.0265848 21.2837 0.115201 24.2183 0.256986 27.1177C0.540558 32.9167 0.61145 34.3335 2.20211 34.4519C3.66427 34.8204 12.7208 37.0005 23.2395 37.0005C29.0173 37.0005 35.2382 36.3425 40.8786 34.3686L41.8135 34.0396L41.9331 33.0702C42.0173 32.4034 43.9713 16.6253 41.9242 3.87813" fill="#E2112F"/>
</g>
<defs>
<clipPath id="clip0_5_3">
<rect width="140" height="37" fill="white"/>
</clipPath>
</defs>
</svg>
