<svg width="87" height="87" viewBox="0 0 87 87" fill="none" xmlns="http://www.w3.org/2000/svg">
<circle cx="43.5" cy="43.5" r="43.5" fill="#121212"/>
<path d="M44.2081 64.8846H27.1965C25.5008 64.5017 24.1333 63.1889 24.1333 61.3291V55.4763C24.1333 54.0541 25.4461 53.5071 26.1572 52.5225C26.3213 52.249 26.2666 51.7567 26.2666 51.4285C26.1572 47.326 26.6495 43.2782 27.8529 39.3945C28.0717 38.6834 27.7435 37.9176 27.0871 37.6441L23.8051 36.1672C22.8752 35.7296 22.3282 34.9638 22 34.034V25.7743C22.3829 24.4068 23.4222 23.4222 24.9538 23.4222H29.658C30.1503 23.4222 30.4785 23.2581 30.8614 22.9299C31.3537 22.4376 32.0101 22 32.7759 22H39.5586C40.0509 22 40.4885 22.2188 40.8714 22.4376L43.7705 24.188C44.7551 24.1333 45.685 24.188 46.6149 24.188C47.1619 24.188 47.5995 24.6256 47.9824 24.8444C49.2952 24.9538 50.6627 24.8444 51.9755 24.8444C53.0148 24.8444 53.8353 25.3914 54.1635 26.4307L56.7344 27.0324C57.172 27.1418 57.3908 27.47 57.6643 27.6888C58.1019 27.7982 58.6489 27.6888 59.1412 27.6888C60.0164 27.6888 60.6728 28.2358 60.7275 29.111H64.2282C64.6658 29.111 64.9393 29.4392 64.994 29.8221C65.0487 30.205 64.7205 30.5332 64.2829 30.5332H60.7275C60.3993 32.5024 58.813 31.7913 57.6643 32.0101C57.3361 32.2836 57.0626 32.6118 56.5703 32.7212L54.1635 33.2682C53.8353 34.1981 53.0695 34.7997 52.0849 34.7997H47.9824C47.5448 35.2373 46.9978 35.5108 46.3961 35.5108H44.1534C43.2235 37.5894 41.3637 36.7142 40.215 36.9877C39.7774 37.0971 39.5586 37.8082 39.5039 38.2458C39.4492 38.9022 39.6133 39.5039 39.8321 40.1056C39.9415 40.4338 39.9415 40.762 39.9415 41.1449C39.9415 41.9654 39.3945 42.6765 38.5193 42.6765C37.5347 42.6765 36.7142 43.2782 36.4407 44.2628L34.2528 51.9208C34.1434 52.3037 34.2527 52.6866 34.4715 52.9601C34.6903 53.2336 35.0186 53.3977 35.4015 53.3977H40.2697C42.1295 53.3977 43.8252 54.2729 44.9192 55.8045L46.7243 58.3207C46.9978 58.7036 47.1619 59.1412 47.1619 59.6335V61.8761C47.1619 62.5872 46.8337 63.1889 46.2867 63.6265C45.5756 64.1188 45.0833 64.447 44.3722 64.8299L44.2081 64.8846ZM32.9946 53.4524C32.7211 52.796 32.6665 52.1943 32.8306 51.5926L34.9092 44.3722C33.5964 41.6919 33.0494 38.4099 35.8938 36.5501C36.6595 36.0578 37.5347 35.6202 38.4646 35.6202H42.0748C42.5124 35.6202 42.7859 35.2373 42.7859 34.8544V25.282L40.1603 23.6957C39.8868 23.5316 39.5586 23.4769 39.2304 23.4222H33.0494C31.6819 23.4222 31.7366 24.8444 29.7127 24.8444H24.9538C24.1333 24.8444 23.5316 25.5008 23.5316 26.3213V33.4323C23.5316 34.034 23.8598 34.5262 24.4068 34.745L27.7982 36.2766C29.1657 36.8783 29.7674 38.3552 29.3845 39.7774C28.5093 42.7859 27.9076 45.8491 27.9076 49.0217V52.1396C27.9076 52.5772 27.7435 52.9601 27.47 53.4524H33.1588H32.9946ZM44.8098 32.7212C44.8098 32.7212 44.3722 32.7212 44.1534 32.7212C44.1534 33.2135 44.1534 33.6511 44.1534 34.1434H46.2867C46.6696 34.1434 46.9978 33.8152 46.9978 33.4323V26.3213C46.9978 25.8837 46.6696 25.6102 46.2867 25.6102H44.1534V26.9777C44.3722 27.0324 44.591 26.9777 44.8645 26.9777C45.3021 26.9777 45.5756 27.3059 45.5756 27.6888C45.5756 28.0717 45.3021 28.3452 44.8645 28.3999C44.6457 28.3999 44.4269 28.3999 44.1534 28.3999V31.1896C44.1534 31.1896 44.591 31.2443 44.7551 31.2443C45.1927 31.2443 45.5209 31.5178 45.5756 31.9554C45.5756 32.3383 45.3021 32.6665 44.8098 32.6665V32.7212ZM48.4747 33.4323H52.0302C52.4678 33.4323 52.7413 33.1041 52.796 32.7212V27.0324C52.796 26.5948 52.4678 26.2666 52.0302 26.2666H48.5294C48.5294 26.7589 48.5294 27.1965 48.5294 27.6888H50.7174C51.155 27.6888 51.4285 28.1264 51.3738 28.4546C51.3738 28.8922 50.9909 29.111 50.5533 29.111H48.5294V33.3776L48.4747 33.4323ZM56.2968 31.299V28.3999L54.1635 27.9076V31.7913L56.2968 31.299ZM59.1412 30.5879C59.1412 30.0956 59.1412 29.658 59.1412 29.1657C58.6489 29.1657 58.2113 29.1657 57.719 29.1657V30.5332C58.2113 30.5332 58.5942 30.5332 59.1412 30.5332V30.5879ZM38.4099 41.309C38.4099 40.8714 38.4099 40.6526 38.3005 40.3791C37.9176 39.3398 37.8082 38.1911 38.3005 37.0971C37.6988 37.2065 37.2065 37.4253 36.7142 37.6988C34.9091 38.7928 35.0185 40.8714 35.7296 42.6218C36.4407 41.8013 37.3706 41.3637 38.4646 41.309H38.4099ZM45.4115 59.1412L43.6064 56.625C42.8406 55.531 41.5825 54.8746 40.1603 54.8746H25.9384C25.9384 54.8746 25.5555 55.1481 25.5555 55.4216V59.9069H45.5209C45.6303 59.6334 45.5209 59.36 45.3568 59.1412H45.4115ZM45.5209 61.3291H25.5555C25.5555 62.5872 26.5401 63.4624 27.8529 63.4624H43.8799C44.8645 62.7513 45.9038 62.5872 45.5209 61.3291Z" fill="#E2112F"/>
<path d="M27.9075 33.7062L25.7742 32.8858C25.1725 32.667 24.8443 32.12 24.8443 31.4636V27.7987C24.8443 26.9235 25.5007 26.3218 26.3212 26.3218H28.3451C29.2203 26.3218 29.822 26.9782 29.822 27.7987V32.3935C29.822 32.8858 29.5485 33.3233 29.2203 33.5421C28.8374 33.8156 28.3451 33.925 27.8528 33.7062H27.9075ZM28.3998 32.3388V27.6893H26.2665V31.4636L28.3998 32.2841V32.3388Z" fill="#E2112F"/>
<path d="M39.8321 33.432H32.7211C32.2835 33.432 32.01 33.1038 32.01 32.7756C32.01 32.3927 32.2835 32.0098 32.7211 32.0098H39.8868C40.2697 32.0098 40.5432 32.338 40.5432 32.6662C40.5432 33.0491 40.3244 33.432 39.8321 33.432Z" fill="#E2112F"/>
<path d="M39.8869 30.5883H32.7212C32.2836 30.5883 32.0101 30.2601 31.9554 29.9319C31.9554 29.549 32.2289 29.1661 32.6665 29.1661H39.7775C40.1604 29.1661 40.4886 29.4396 40.4886 29.7678C40.4886 30.096 40.3245 30.5883 39.8322 30.5883H39.8869Z" fill="#E2112F"/>
<path d="M39.8868 27.6888H32.7211C32.2835 27.6888 32.01 27.3606 32.01 26.9777C32.01 26.5948 32.2835 26.2666 32.7211 26.2666H39.8321C40.215 26.2666 40.5432 26.5401 40.5432 26.8683C40.5432 27.2512 40.3244 27.6888 39.8868 27.6888Z" fill="#E2112F"/>
</svg>
