<svg width="87" height="87" viewBox="0 0 87 87" fill="none" xmlns="http://www.w3.org/2000/svg">
<circle cx="43.5" cy="43.5" r="43.5" fill="#121212"/>
<path d="M59.5457 61.9497H57.3754C57.3754 61.9497 57.0221 61.6984 57.0221 61.447V60.1902H30.9274V61.447C30.9274 61.6984 30.6751 61.7989 30.5237 61.9497H28.3533C28.3533 61.9497 28 61.6984 28 61.447V26.4579C28 25.6033 28.7066 25 29.4637 25C30.2208 25 30.877 25.6535 30.877 26.4579V35.4062H32.5931V27.3125C32.5931 27.0109 32.8454 26.7595 33.1987 26.7595H42.4858C42.8391 26.7595 43.0915 27.0109 43.0915 27.3125V35.4062H44.858V27.3125C44.858 27.0109 45.1104 26.7595 45.4637 26.7595H54.7508C55.0536 26.7595 55.3565 27.0109 55.3565 27.3125V35.4062H57.123V26.5082C57.123 25.6535 57.7287 25 58.5363 25C59.3438 25 60 25.6033 60 26.4579V61.2459C60 61.5978 59.899 61.7989 59.6467 62L59.5457 61.9497ZM29.7161 60.7432V26.4579C29.7161 26.4579 29.5647 26.1562 29.4132 26.1562C29.3123 26.1562 29.1609 26.2568 29.1609 26.4579V60.7935C29.1609 60.7935 29.5647 60.894 29.7666 60.7935L29.7161 60.7432ZM58.7382 60.7432V26.4579C58.7382 26.4579 58.5867 26.1562 58.4353 26.1562C58.3344 26.1562 58.183 26.2568 58.183 26.4579V60.7935C58.183 60.7935 58.5868 60.894 58.7382 60.7935V60.7432ZM39.5584 29.1223C39.5584 29.4239 39.2555 29.5747 39.0032 29.5747H36.6814C36.3281 29.5747 36.1262 29.3234 36.1262 28.9715V27.8152H33.8044V35.3057H41.9306V27.8655H39.6088V29.1223H39.5584ZM38.4479 28.4688C38.4479 28.2174 38.4479 28.0666 38.4479 27.9158H37.3375C37.3375 27.9158 37.3375 28.2677 37.3375 28.4688H38.4479ZM51.7729 29.1223C51.7729 29.4239 51.47 29.5747 51.2177 29.5747H48.8959C48.0379 29.5747 48.3912 28.3682 48.2902 27.8655H45.9685V35.356H54.0946V27.8655H51.7729V29.1223ZM50.612 28.4688C50.612 28.2174 50.612 28.0666 50.612 27.9158H49.5016C49.5016 27.9158 49.5016 28.2677 49.5016 28.4688H50.612ZM56.9716 37.1155C56.9716 36.8641 56.9716 36.7133 56.9716 36.5625H30.9274C30.9274 36.5625 30.9274 36.9144 30.9274 37.1658H56.9716V37.1155ZM54.7003 39.428C55.0536 39.428 55.2555 39.7296 55.2555 40.0312V46.3655H57.0221V38.322H30.9274V46.3655H32.6435V40.1318C32.6435 39.7296 32.8959 39.4783 33.2997 39.4783H54.7003V39.428ZM45.9685 41.7908C45.9685 42.0924 45.6656 42.2935 45.4132 42.2935H42.5363C42.2334 42.2935 41.9811 42.0421 41.9811 41.7405V40.5842H33.8549V46.3655H54.1451V40.5842H46.0189V41.7908H45.9685ZM44.8076 41.1372C44.8076 41.1372 44.8076 40.7351 44.8076 40.5842H43.0915C43.0915 40.5842 43.0915 40.9361 43.0915 41.1372H44.8076ZM56.9716 48.0747C56.9716 48.0747 57.0221 47.6726 56.9716 47.5217H30.9274C30.9274 47.5217 30.877 47.9239 30.9274 48.0747H56.9716ZM45.9685 57.3247V50.4375C45.9685 50.0856 46.2208 49.8342 46.5741 49.8342H54.7003C55.0536 49.8342 55.306 50.0856 55.306 50.4375V57.3247H57.0726V49.2812H30.9779V57.375H32.694V52.197C32.694 51.7948 32.9968 51.5938 33.3502 51.5938H43.6972C44.0505 51.5938 44.3028 51.8451 44.3028 52.197V57.375H46.0694L45.9685 57.3247ZM52.3785 52.0965C52.3785 52.4484 52.1262 52.6997 51.8233 52.6997H49.5016C49.1987 52.6997 48.9464 52.4484 48.9464 52.1467V50.9905H47.1798V57.3247H54.1451V50.9905H52.429V52.1467L52.3785 52.0965ZM51.1672 51.5435C51.1672 51.5435 51.1672 51.1413 51.1672 50.9905H50.0568C50.0568 50.9905 50.0568 51.3424 50.0568 51.5435H51.1672ZM40.164 53.856C40.164 54.2079 39.9117 54.4592 39.6088 54.4592H37.2871C36.9842 54.4592 36.7319 54.2079 36.7319 53.9062V52.75H33.8044V57.375H43.0915V52.75H40.2145V53.9062L40.164 53.856ZM39.0032 53.303C39.0032 53.303 39.0032 52.9008 39.0032 52.75H37.8927C37.8927 52.75 37.8927 53.1019 37.8927 53.303H39.0032ZM56.9716 59.034C56.9716 59.034 57.0221 58.6318 56.9716 58.481H30.9274C30.9274 58.481 30.877 58.8832 30.9274 59.034H56.9716Z" fill="#E2112F"/>
</svg>
