<svg width="87" height="87" viewBox="0 0 87 87" fill="none" xmlns="http://www.w3.org/2000/svg">
<circle cx="43.5" cy="43.5" r="43.5" fill="#121212"/>
<path d="M58.7608 66.4793H46.406C42.5143 65.7998 39.6727 62.3405 40.414 58.3252L42.0201 49.6151C42.9467 44.7967 46.4678 40.9667 51.1009 39.4841V35.7159C51.1009 35.2217 51.348 34.9129 51.9039 34.9129V25.9556C51.9039 25.5232 51.5951 25.1526 51.2244 25.0908C50.7302 25.029 50.4213 25.2144 50.1742 25.7085L35.225 59.1282C36.8311 59.746 36.3987 60.7344 36.5222 62.0934C37.0164 62.0934 37.4488 62.0934 37.943 62.0934C39.4874 62.0934 40.8464 63.0818 41.2788 64.5643L41.5259 65.5527C41.6495 65.9851 41.4641 66.294 41.0935 66.4793H35.5338C35.5338 66.4793 35.1014 66.1087 35.1632 65.7998C35.1632 65.5527 35.3485 65.1821 35.7192 65.1821H40.0433C39.858 64.1937 39.0549 63.3906 38.0048 63.3906H26.5766C25.3411 63.3906 24.2292 64.0702 23.6732 65.1203H33.2482C33.6188 65.1203 33.8042 65.4292 33.8659 65.6763C33.8659 65.9851 33.6806 66.2322 33.4335 66.4176H22.4378C22.4378 66.4176 21.9436 66.0469 22.0053 65.738C22.4378 63.576 24.4145 62.0316 26.6384 62.0316H28.8623V60.4873C28.8623 59.4989 29.7889 58.9429 30.7772 59.0665L41.5877 34.8511C41.773 34.4187 42.1436 34.2951 42.5143 34.4804C42.8232 34.604 43.0085 34.9746 42.8232 35.3453L32.2598 59.0047C32.754 59.0047 33.1864 59.0047 33.7424 59.0047L48.9388 24.9673C49.3712 23.9789 50.4214 23.4847 51.4715 23.7318C52.5217 23.9789 53.2012 24.7819 53.2012 25.8939V34.8511C53.6336 34.8511 54.066 34.8511 54.5602 34.8511V25.8939C54.5602 24.1642 53.3247 22.7434 51.7186 22.4345C50.1125 22.1257 48.4446 22.9905 47.7033 24.5348L43.9351 32.9361C43.7498 33.3067 43.3791 33.4303 43.0703 33.245C42.7614 33.0596 42.5761 32.7508 42.7614 32.3801L46.5296 23.9171C47.4562 21.755 49.8036 20.5813 52.0275 21.1373C54.2513 21.6932 55.8575 23.4847 55.8575 25.8321V34.8511C56.2281 34.9746 56.537 35.16 56.537 35.5924V39.0517C57.7107 39.6077 58.5137 40.7196 58.452 42.0786V45.7233C58.452 46.1557 58.0195 46.341 57.7107 46.341C57.4018 46.341 57.0929 46.0322 57.0929 45.6615V42.0786C57.0929 41.0285 56.2899 40.1636 55.2397 40.1636C54.2513 40.1636 53.3247 40.2254 52.3363 40.4725V49.3062C52.3363 50.727 51.1626 51.7154 49.7418 51.7154H42.8849L41.6495 58.3252C40.9699 61.8463 43.6262 65.1203 47.2091 65.1203H53.6336C51.1626 63.2671 50.0507 60.1784 50.9155 57.2132C51.7186 54.4952 54.1896 52.3949 57.1547 52.086V48.3178C57.1547 47.8854 57.4636 47.6383 57.8342 47.6383C58.1431 47.6383 58.452 47.8854 58.452 48.256V52.086C62.1584 52.5184 65 55.4836 65 59.2518C65 62.5876 62.2819 66.4176 58.6373 66.4176L58.7608 66.4793ZM55.2397 38.8046V36.2101H52.4599V39.0517C53.4483 38.8664 54.3131 38.8046 55.2397 38.7428V38.8046ZM51.1626 49.2444V40.9049C46.962 42.4493 43.9969 46.0939 43.2556 50.4181H50.1125C50.7302 50.3563 51.1626 49.9239 51.1626 49.2444ZM57.1547 53.5068C53.8807 53.9392 51.6568 56.9662 52.0893 60.1166C52.5217 63.2671 55.425 65.5527 58.5755 65.1821C61.726 64.8114 64.1352 61.8463 63.7027 58.634C63.2703 55.4218 60.4287 53.1362 57.1547 53.5686V53.5068ZM35.1632 62.0934C35.1632 61.4756 35.1632 61.0432 35.1632 60.4873H30.3448C30.3448 61.105 30.3448 61.5374 30.3448 62.0934H35.225H35.1632Z" fill="#E2112F"/>
<path d="M57.4016 56.3484C59.1313 56.0395 60.6139 57.275 60.861 58.8194C61.1081 60.3637 59.9962 61.9698 58.39 62.2169C56.7839 62.464 55.2396 61.4139 54.9925 59.8077C54.7454 58.2016 55.7338 56.5955 57.4634 56.2866L57.4016 56.3484ZM57.6487 57.6456C56.6604 57.7692 56.0426 58.6958 56.228 59.5606C56.4133 60.4255 57.2163 61.0432 58.1429 60.9197C59.0078 60.7961 59.6873 59.9931 59.502 59.0047C59.3784 58.2016 58.6371 57.5221 57.6487 57.6456Z" fill="#E2112F"/>
</svg>
