<svg width="87" height="87" viewBox="0 0 87 87" fill="none" xmlns="http://www.w3.org/2000/svg">
<circle cx="43.5" cy="43.5" r="43.5" fill="#121212"/>
<path d="M29.3936 28.9211L25.4904 32.8244C25.4904 32.8244 25.2952 33.4098 25.4904 33.605L31.2151 39.3948C32.5162 40.6959 32.5162 42.8427 31.2151 44.0787C29.9141 45.3147 27.7673 45.5099 26.4011 44.0787L22.0425 39.7201C22.0425 39.7201 21.9124 39.0695 22.1075 38.8744C22.3678 38.6792 22.693 38.6792 22.9532 38.9394L27.1818 43.168C28.0275 44.0137 29.3936 44.0787 30.2393 43.168C31.085 42.2572 31.1501 40.9561 30.2393 40.0454L24.5145 34.3206C23.799 33.605 23.799 32.4991 24.5145 31.7835L28.2877 28.0104C29.0684 27.2297 30.1092 27.3598 30.9549 28.0104C32.9066 26.6442 35.5738 26.5792 37.3953 28.3356L45.8524 36.2072C49.04 35.5566 52.2277 36.4023 54.6347 38.4841C57.0417 40.5658 58.2127 43.5583 57.9525 46.6809C57.9525 47.0061 57.6272 47.2013 57.367 47.2013L55.025 47.0061C54.6347 49.6083 52.8132 51.7551 50.5363 52.6008C47.8691 53.5766 45.0067 52.926 42.99 50.9744L41.4937 52.6008C41.4937 52.6008 40.7781 52.861 40.5179 52.5357C38.4362 50.1287 37.5905 46.9411 38.241 43.8185L30.3694 35.4265C28.678 33.605 28.613 30.9378 30.1092 28.9862C29.9141 28.6609 29.5237 28.6609 29.2635 28.9211H29.3936ZM44.6163 36.6626L36.8098 29.3765C35.2485 27.9453 32.9716 28.0104 31.5404 29.4416C30.1092 30.8727 30.0442 33.2147 31.4754 34.7109L38.7615 42.5174C39.8674 39.7201 41.8841 37.7034 44.6163 36.6626ZM55.2202 45.9002L56.9116 46.0303C56.9116 42.2572 54.4396 38.8744 50.9917 37.7685C47.2185 36.4674 43.2502 37.8335 41.0384 40.8911C38.8265 43.9486 38.8265 48.3072 41.1685 51.3647C41.6238 50.9744 41.9491 50.5841 42.3394 50.0637C40.583 47.4615 40.648 44.0787 42.5997 41.6066C44.5513 39.1346 47.6088 38.2889 50.6013 39.3298C53.2686 40.2405 55.2202 42.8427 55.3503 45.9002H55.2202ZM47.9992 40.1104C44.6814 40.1104 42.1443 42.9077 42.2093 46.1604C42.2744 49.4131 45.0067 52.0153 48.2594 51.9502C51.5121 51.8852 54.1143 49.218 54.0492 45.9653C53.9842 42.7126 51.382 40.1104 48.0642 40.1755L47.9992 40.1104Z" fill="#E2112F"/>
<path d="M64.9133 59.0412C64.9133 59.0412 65.1084 59.5617 64.9133 59.7568C64.8482 59.8869 64.6531 60.017 64.3278 60.017H31.02C31.02 60.017 30.4995 59.8869 30.4345 59.6918C30.3044 59.4966 30.3044 59.1713 30.4345 59.0412C31.085 58.3256 31.6054 57.545 32.321 56.8944C33.2969 55.9837 34.663 55.4633 36.0942 55.4633H59.3186C60.6847 55.4633 62.0509 55.9837 63.0267 56.8944C63.7423 57.545 64.1977 58.3256 64.9133 59.0412ZM63.0918 58.8461C62.2461 57.3498 60.6847 56.6993 59.0584 56.6993H36.3544C34.5979 56.6993 33.1667 57.4149 32.256 58.8461H63.0918Z" fill="#E2112F"/>
<path d="M36.4845 48.9578C36.8748 49.0229 37.005 49.3481 36.9399 49.6083C36.9399 49.9336 36.6146 50.1938 36.2243 50.1288L33.1017 49.4132C32.7764 49.3481 32.5813 49.0228 32.6463 48.6976C32.7114 48.3723 32.9716 48.1771 33.3619 48.2422L36.4195 48.9578H36.4845Z" fill="#E2112F"/>
<path d="M33.4921 53.8367C33.1017 53.9017 32.8415 53.7066 32.7765 53.4464C32.7114 53.1211 32.7765 52.7308 33.1668 52.6657L36.2894 51.9501C36.6147 51.8851 36.9399 52.0802 37.005 52.3404C37.07 52.6657 36.9399 52.991 36.5496 53.056L33.4921 53.7716V53.8367Z" fill="#E2112F"/>
<path d="M57.1069 50.1282C56.7166 50.1932 56.3913 49.9981 56.3262 49.7379C56.2612 49.4776 56.3262 49.0873 56.7166 49.0223L59.8392 48.3067C60.1644 48.2416 60.4897 48.4368 60.5548 48.697C60.6198 49.0223 60.4897 49.3475 60.0994 49.4776L57.1069 50.1932V50.1282Z" fill="#E2112F"/>
<path d="M60.0993 52.6659C60.4896 52.731 60.6848 53.0563 60.6197 53.3815C60.6197 53.7068 60.2294 53.967 59.9041 53.8369L56.8466 53.1213C56.5213 53.0563 56.3261 52.731 56.3912 52.4708C56.3912 52.1455 56.7815 51.8853 57.1068 51.9503L60.0993 52.6659Z" fill="#E2112F"/>
<path d="M47.5437 44.0785C48.6496 43.7533 49.7555 44.4038 50.0157 45.5097C50.276 46.6156 49.6905 47.6565 48.5846 47.9818C47.5437 48.242 46.5028 47.7216 46.1775 46.6807C45.8523 45.6398 46.3727 44.4689 47.5437 44.1436V44.0785ZM47.8039 45.2495C47.2835 45.4447 47.1534 45.9651 47.3485 46.3554C47.5437 46.7457 47.9991 46.9409 48.3243 46.8108C48.7797 46.6807 48.9749 46.1603 48.8448 45.7699C48.7147 45.3796 48.2593 45.1194 47.8039 45.2495Z" fill="#E2112F"/>
<path d="M44.6813 45.0548C44.5512 45.4451 44.226 45.5102 43.9657 45.4451C43.7055 45.38 43.4453 45.0548 43.5104 44.7295C43.9657 43.1682 45.1367 41.9322 46.698 41.4118C47.0233 41.2817 47.3486 41.4118 47.4787 41.672C47.6088 41.9972 47.4787 42.3876 47.0883 42.5177C45.9174 42.8429 45.0066 43.7537 44.6163 44.9897L44.6813 45.0548Z" fill="#E2112F"/>
<path d="M52.683 47.3313C51.9674 49.9335 48.9749 51.3647 48.6496 50.1937C48.5845 49.9335 48.6496 49.5432 49.0399 49.4781C50.276 49.0878 51.1867 48.177 51.512 47.0061C51.6421 46.6808 51.9674 46.5507 52.2276 46.6158C52.5529 46.6808 52.748 47.0061 52.683 47.3313Z" fill="#E2112F"/>
<path d="M38.2411 36.1419C37.4604 36.9226 36.3545 37.1177 35.5088 36.272L33.4921 34.2553C32.6464 33.4096 32.9066 32.3688 33.6873 31.5881C34.4679 30.8075 35.5088 30.5473 36.2894 31.393L38.4362 33.5397C39.2169 34.3204 38.9567 35.3613 38.2411 36.1419ZM37.3954 35.2962C37.3954 35.2962 37.9158 34.6457 37.5905 34.3854L35.5088 32.3037C35.5088 32.3037 34.8583 32.3037 34.598 32.5639C34.4029 32.7591 34.0776 33.1494 34.4029 33.4747C35.1185 34.1903 35.8341 34.9059 36.5497 35.6215C36.8749 35.8817 37.2002 35.6215 37.4604 35.3612L37.3954 35.2962Z" fill="#E2112F"/>
</svg>
