<svg width="87" height="87" viewBox="0 0 87 87" fill="none" xmlns="http://www.w3.org/2000/svg">
<circle cx="43.5" cy="43.5" r="43.5" fill="#121212"/>
<path d="M22.0586 52.5661V50.8672C22.4101 48.6996 23.6403 46.7664 25.4564 45.7119C27.624 44.4816 30.143 44.4816 32.252 45.5947L34.0095 43.8958L32.252 42.1969C30.143 43.31 27.7411 43.3685 25.515 42.1969C23.6989 41.201 22.4101 39.2677 22 37.1001V35.3426C22.2343 33.8781 22.8787 32.5892 23.8747 31.4762C26.1594 28.8399 29.9673 28.2541 32.8965 30.0702C35.8256 31.8862 36.9387 35.577 35.4741 38.7405L37.1144 40.0879C37.1144 40.0879 37.7003 40.0879 37.9932 40.0879L47.6008 30.8903C50.1199 28.4884 53.9864 28.2541 56.3297 30.8903C56.564 31.1832 56.564 31.5347 56.2711 31.7691L41.6839 43.9544L56.2125 56.0225C56.5054 56.2568 56.6812 56.6083 56.3883 56.9598C54.045 59.5961 50.1199 59.3617 47.6008 56.9598L37.9932 47.7623C37.7003 47.7623 37.3488 47.6451 37.1144 47.7623L35.4741 49.1097C36.8801 52.2732 35.767 55.9053 32.8965 57.78C30.0259 59.6546 26.218 59.1274 23.9332 56.5497C22.8787 55.3781 22.2929 54.0892 22 52.5661H22.0586ZM34.2439 42.4898C34.6539 41.6696 35.1226 41.1424 35.8842 40.6737L34.4782 39.5021C34.4782 39.5021 34.1267 39.0334 34.2439 38.7405C35.6499 36.1042 34.8297 32.8822 32.4278 31.2418C30.0259 29.6015 26.7452 30.1287 24.812 32.3549C22.8787 34.5811 22.7616 37.7446 24.6362 39.9707C26.5109 42.1969 29.6744 42.6655 32.1349 41.0838C32.3692 40.9081 32.6621 41.0252 32.8379 41.201C33.3651 41.6696 33.7752 42.1383 34.3024 42.5484L34.2439 42.4898ZM41.391 42.6655L55.0994 31.2418C53.2248 29.6015 50.3542 30.0116 48.6553 31.5933L39.3992 40.498C40.3365 40.9666 40.9809 41.7282 41.4496 42.6655H41.391ZM37.2902 41.3767C35.767 41.6696 34.9469 43.1342 35.2398 44.5402C35.5327 45.9462 36.9387 46.8249 38.2861 46.532C39.6335 46.2391 40.6294 44.8917 40.3365 43.4857C40.0436 42.0797 38.7548 41.1424 37.2316 41.4353L37.2902 41.3767ZM55.0994 56.6669L41.391 45.2432C40.9809 46.2977 40.2779 46.9421 39.3992 47.4108L48.7139 56.3154C50.2956 57.8386 53.2834 58.2487 55.0994 56.6083V56.6669ZM34.2439 49.2854C34.2439 49.2854 34.2439 48.6996 34.4196 48.5238L35.8842 47.2936C35.1226 46.8249 34.6539 46.2391 34.2439 45.4775L32.7793 46.8249C32.7793 46.8249 32.252 47.0593 32.0177 46.8835C29.5572 45.3018 26.3351 45.8876 24.5191 48.1138C22.703 50.3399 22.8202 53.5034 24.7534 55.671C26.6866 57.8386 29.9087 58.4244 32.3692 56.7255C34.8297 55.0266 35.6499 51.8631 34.1853 49.2269L34.2439 49.2854Z" fill="#E2112F"/>
<path d="M47.8352 44.5402H44.906C44.5545 44.5402 44.2616 44.3059 44.2616 44.0129C44.2616 43.6614 44.4959 43.3685 44.906 43.3685H47.7766C48.1281 43.3685 48.421 43.6029 48.421 43.8958C48.421 44.1887 48.2452 44.5402 47.8352 44.5402Z" fill="#E2112F"/>
<path d="M53.3418 44.5402H50.4127C50.0612 44.5402 49.8268 44.2473 49.8268 44.0129C49.8268 43.6614 50.0612 43.3685 50.4127 43.3685H53.3418C53.6933 43.3685 53.9277 43.6029 53.9277 43.8958C53.9277 44.2473 53.6933 44.5402 53.3418 44.5402Z" fill="#E2112F"/>
<path d="M58.9661 44.5402H55.9783C55.6268 44.5402 55.3925 44.3059 55.3925 44.0129C55.3925 43.6614 55.6268 43.3685 55.9783 43.3685H58.9075C59.259 43.3685 59.4933 43.6029 59.4933 43.8958C59.4933 44.1887 59.3176 44.5402 58.9661 44.5402Z" fill="#E2112F"/>
<path d="M64.4142 44.5402H61.4851C61.1336 44.5402 60.8406 44.3059 60.8406 44.0129C60.8406 43.6614 61.075 43.3685 61.4851 43.3685H64.3556C64.7071 43.3685 65 43.6029 65 43.8958C65 44.1887 64.8243 44.5402 64.4142 44.5402Z" fill="#E2112F"/>
<path d="M32.1348 38.74C30.5531 40.4975 28.034 40.7318 26.2765 39.2087C24.519 37.6855 24.519 35.1078 26.1008 33.3504C27.6825 31.5929 30.143 31.4171 31.8419 32.9403C33.5408 34.4634 33.658 36.9825 32.1348 38.74ZM31.2561 37.9784C32.3691 36.6896 32.3106 34.8735 31.0803 33.819C29.8501 32.7645 28.034 32.9403 26.9795 34.2291C25.925 35.5179 25.8664 37.334 27.1552 38.3885C28.4441 39.443 30.2016 39.2673 31.3146 37.9784H31.2561Z" fill="#E2112F"/>
<path d="M32.1348 49.1686C33.658 50.9261 33.658 53.4452 31.9591 54.9683C30.2602 56.4915 27.6825 56.2572 26.1008 54.5583C24.519 52.8593 24.519 50.2817 26.2765 48.6999C28.034 47.1182 30.5531 47.3525 32.1348 49.1686ZM31.1975 49.9302C30.0844 48.6414 28.2683 48.5242 27.0381 49.5787C25.8078 50.6332 25.8078 52.4493 26.9209 53.7381C28.034 55.0269 29.8501 55.2027 31.0803 54.0896C32.3106 52.9765 32.3106 51.219 31.1975 49.9302Z" fill="#E2112F"/>
<path d="M37.466 42.3728C38.4033 42.197 39.2235 42.7829 39.3993 43.6616C39.575 44.5404 38.9892 45.4191 38.1104 45.5949C37.2317 45.7706 36.3529 45.2434 36.1772 44.3646C36.0014 43.4859 36.4701 42.5485 37.466 42.3142V42.3728ZM37.7003 43.4859C37.4074 43.4859 37.2317 43.8374 37.2903 44.0717C37.2903 44.3646 37.5832 44.4818 37.8175 44.4818C38.1104 44.4818 38.2862 44.1889 38.2276 43.9545C38.169 43.7202 37.9933 43.4859 37.7003 43.5444V43.4859Z" fill="#E2112F"/>
</svg>
