<svg width="87" height="87" viewBox="0 0 87 87" fill="none" xmlns="http://www.w3.org/2000/svg">
<circle cx="43.5" cy="43.5" r="43.5" fill="#121212"/>
<path d="M46.0499 22C47.1236 22.3579 47.9825 23.0737 48.1973 24.2189L48.6267 27.7262C49.4856 28.0125 50.273 28.3704 51.0603 28.7283L53.7803 26.6525C54.7823 25.8652 56.2855 25.9367 57.216 26.8673L60.2222 29.8735C61.1527 30.804 61.1527 32.2355 60.3654 33.3092L58.2896 36.0291C58.7191 36.8165 59.0054 37.6038 59.2917 38.4628L62.5843 38.8922C63.8011 39.0354 64.8747 39.9659 64.9463 41.2543C65.0179 42.829 65.0179 44.3321 64.9463 45.9068C64.9463 47.1952 63.7295 48.1257 62.5843 48.2688L59.2917 48.6983C59.0054 49.5572 58.6475 50.3446 58.2896 51.1319L60.3654 53.8519C61.2243 54.9255 61.0812 56.4286 60.1506 57.3591L57.2876 60.2222C56.3571 61.1527 54.9255 61.2959 53.8518 60.5085L51.0603 58.3612C50.273 58.7907 49.4856 59.077 48.6267 59.3633L48.1973 62.7274C48.0541 63.8727 47.1236 64.9463 45.8352 65.0179C44.2605 65.0895 42.7574 65.0895 41.1827 65.0179C39.8227 64.9463 38.9638 63.8011 38.8206 62.5843L38.3912 59.3633C37.5322 59.077 36.7449 58.7191 35.9575 58.3612L33.2376 60.437C32.2355 61.2243 30.804 61.2243 29.8735 60.2938L27.0104 57.4307C26.0083 56.5002 25.7936 54.9971 26.5809 53.9234L28.7282 51.1319C28.2988 50.3446 28.0125 49.5572 27.7262 48.6983L24.5052 48.2688C23.2168 48.1257 22.3579 47.2668 22 46.1215V41.1111C22.3579 39.8943 23.2168 39.107 24.5052 38.9638L27.7262 38.5343C28.0125 37.6754 28.3704 36.8881 28.7282 36.1007L26.5809 33.3092C25.7936 32.2355 26.0083 30.804 26.9388 29.8735L29.8735 27.0104C30.804 26.0799 32.2355 26.0799 33.3092 26.8673L36.0291 28.943C36.8165 28.5135 37.6038 28.2272 38.4628 27.9409L38.8922 24.7199C39.0354 23.4315 39.8943 22.5726 41.0395 22.2147H46.0499V22ZM45.5489 63.2285C46.0499 63.2285 46.3362 62.8706 46.4078 62.4411L46.9089 58.5044C46.9089 58.5044 47.1952 57.8602 47.5531 57.7886C48.6983 57.4307 49.7004 57.0013 50.7025 56.5002C51.0603 56.3571 51.4182 56.3571 51.7045 56.5002L54.8539 58.9338C55.2118 59.2201 55.7129 59.2201 56.0707 58.9338L58.9338 56.0708C58.9338 56.0708 59.2917 55.2834 59.0054 54.9255L56.5718 51.7761C56.5718 51.7761 56.3571 51.1319 56.5718 50.774C57.1444 49.772 57.5739 48.7699 57.8602 47.6962C58.0033 47.2668 58.2896 47.052 58.7191 46.9804L62.5843 46.4794C63.0137 46.4794 63.3716 46.0499 63.3716 45.5489V41.6122C63.3716 41.1111 63.0137 40.7532 62.5843 40.6816L58.7191 40.1806C58.2896 40.1806 58.0033 39.8943 57.8602 39.4648C57.5739 38.3912 57.1444 37.3891 56.5718 36.387C56.4286 36.0291 56.4286 35.6712 56.5718 35.3849L59.0054 32.2355C59.2917 31.8777 59.2917 31.3766 59.0054 31.0187L56.1423 28.1556C56.1423 28.1556 55.355 27.8693 54.9971 28.0841L51.8477 30.5177C51.8477 30.5177 51.2035 30.7324 50.8456 30.5177C49.8435 29.9451 48.8415 29.5156 47.7678 29.2293C47.3383 29.0861 47.1236 28.7998 47.052 28.3704L46.551 24.5052C46.551 24.0757 46.1215 23.7179 45.6205 23.7179H41.6837C41.2543 23.7179 40.8248 24.0757 40.7532 24.5052L40.2522 28.3704C40.2522 28.7998 39.9659 29.0861 39.5364 29.2293C38.4627 29.5156 37.4607 29.9451 36.4586 30.5177C36.1007 30.6608 35.7428 30.6608 35.4565 30.5177L32.3071 28.0841C32.3071 28.0841 31.4482 27.8693 31.1619 28.1556L28.2988 31.0187C28.2988 31.0187 27.9409 31.8061 28.2272 32.164L30.6608 35.3134C30.6608 35.3134 30.8756 35.9576 30.6608 36.3154C30.0882 37.3175 29.6588 38.3196 29.3724 39.3933C29.2293 39.8227 28.943 40.0375 28.5135 40.109L24.6484 40.6101C24.2189 40.6101 23.861 41.0395 23.861 41.5406V45.4773C23.861 45.9068 24.2189 46.3362 24.6484 46.4078L28.5135 46.9089C28.8714 46.9089 29.2293 47.1952 29.3009 47.5531C29.6588 48.6983 30.0882 49.7004 30.6608 50.774C30.804 51.0603 30.804 51.4182 30.5893 51.7045L28.1556 54.8539C27.8693 55.2118 27.8693 55.7129 28.1556 56.0708L31.0187 58.9338C31.0187 58.9338 31.8061 59.2917 32.164 58.9338L35.3133 56.5002C35.3133 56.5002 35.9576 56.2855 36.3154 56.5002C37.3175 57.0728 38.3196 57.4307 39.3933 57.7886C39.8227 57.9318 40.0374 58.2181 40.109 58.6475L40.6101 62.5127C40.6101 62.9422 41.0395 63.3 41.5406 63.3H45.5489V63.2285Z" fill="#E2112F"/>
<path d="M42.9005 34.5979C47.9109 34.2401 52.1339 37.9621 52.4918 42.8293C52.8497 47.6966 49.1277 52.0628 44.2604 52.4207C39.3932 52.7785 35.0985 49.1281 34.6691 44.1893C34.2396 39.2505 37.89 34.8843 42.9005 34.5264V34.5979ZM42.6141 36.4589C38.6058 36.96 35.8859 40.682 36.4585 44.5472C37.0311 48.4123 40.61 51.1323 44.4751 50.6312C48.3403 50.1302 51.2034 46.5513 50.6308 42.6146C50.0582 38.6778 46.5509 35.8863 42.6141 36.4589Z" fill="#E2112F"/>
</svg>
